<svg width="44" height="44" viewBox="0 0 44 44" fill="none" xmlns="http://www.w3.org/2000/svg">
  <path d="M2 42.0002H42" stroke="#543E7E" stroke-width="3" stroke-miterlimit="10" stroke-linecap="round" stroke-linejoin="round"/>
  <path d="M3.90057 42L4.00057 17.285C4.00057 16.0318 4.58057 14.8403 5.54057 14.0596L19.5407 2.86287C20.9807 1.71238 23.0005 1.71238 24.4605 2.86287L38.4607 14.0391C39.4407 14.8197 40.0007 16.0112 40.0007 17.285V42" stroke="#543E7E" stroke-width="3" stroke-miterlimit="10" stroke-linejoin="round"/>
  <path d="M23.9998 31.728H19.9998C18.3398 31.728 16.9998 33.1045 16.9998 34.8097V42.0003H26.9998V34.8097C26.9998 33.1045 25.6598 31.728 23.9998 31.728Z" stroke="#543E7E" stroke-width="3" stroke-miterlimit="10" stroke-linejoin="round"/>
  <path d="M17.0002 25.0507H13.0002C11.9002 25.0507 11.0002 24.1262 11.0002 22.9962V19.9146C11.0002 18.7846 11.9002 17.8601 13.0002 17.8601H17.0002C18.1002 17.8601 19.0002 18.7846 19.0002 19.9146V22.9962C19.0002 24.1262 18.1002 25.0507 17.0002 25.0507Z" stroke="#543E7E" stroke-width="3" stroke-miterlimit="10" stroke-linejoin="round"/>
  <path d="M30.9999 25.0507H26.9999C25.8999 25.0507 24.9999 24.1262 24.9999 22.9962V19.9146C24.9999 18.7846 25.8999 17.8601 26.9999 17.8601H30.9999C32.0999 17.8601 32.9999 18.7846 32.9999 19.9146V22.9962C32.9999 24.1262 32.0999 25.0507 30.9999 25.0507Z" stroke="#543E7E" stroke-width="3" stroke-miterlimit="10" stroke-linejoin="round"/>
  <path d="M36.0004 11.1831L35.9404 5.01978H27.1404" stroke="#543E7E" stroke-width="3" stroke-miterlimit="10" stroke-linecap="round" stroke-linejoin="round"/>
</svg>