<svg width="34" height="40" viewBox="0 0 34 40" fill="none" xmlns="http://www.w3.org/2000/svg">
  <path d="M17 23C13.1473 23 10 19.8667 10 15.9909C10 12.1152 13.1473 9 17 9C20.8527 9 24 12.1333 24 16.009C24 19.8848 20.8527 23 17 23ZM17 11.7167C14.6486 11.7167 12.7132 13.6365 12.7132 16.009C12.7132 18.3816 14.6305 20.3014 17 20.3014C19.3695 20.3014 21.2868 18.3816 21.2868 16.009C21.2868 13.6365 19.3514 11.7167 17 11.7167Z" fill="#543E7E"/>
  <path d="M16.9944 40C14.312 40 13.1024 38.0642 11 36C5.65334 30.7187 -1.74602 23.1892 0.483259 13.166C2.49504 4.07252 10.2341 0 16.9944 0H17.0125C23.7728 0 31.5119 4.07252 33.5237 13.1846C35.7348 23.2078 28.3466 30.7187 23 36C20.8976 38.0642 19.6768 40 16.9944 40ZM16.9944 2.7894C11.7203 2.7894 4.94181 5.67178 3.14751 13.7796C1.1901 22.5384 8.14271 28.7208 13 33.5C16.1355 36.6055 17.8645 36.6055 21 33.5C25.8391 28.7208 32.7987 22.5384 30.8775 13.7796C29.0651 5.67178 22.2685 2.7894 16.9944 2.7894Z" fill="#543E7E"/>
</svg>