<svg width="36" height="40" viewBox="0 0 36 40" fill="none" xmlns="http://www.w3.org/2000/svg">
  <path d="M17.9615 40C17.5153 40 17.0692 39.9442 16.6416 39.8141C6.99131 37.1552 0 28.137 0 18.3566V10.194C0 8.11151 1.50612 5.86175 3.43987 5.06222L13.7966 0.822776C16.4928 -0.274258 19.449 -0.274258 22.1265 0.822776L32.4833 5.06222C34.417 5.86175 35.9233 8.11151 35.9233 10.194V18.3566C35.9233 28.1184 28.9133 37.1366 19.2817 39.8141C18.854 39.9442 18.4078 40 17.9615 40ZM17.9615 2.81233C16.9017 2.81233 15.8604 3.01688 14.8564 3.42594L4.49974 7.66528C3.60723 8.03715 2.78907 9.24575 2.78907 10.2126V18.3754C2.78907 26.91 8.92504 34.7937 17.3851 37.1366C17.757 37.2481 18.1661 37.2481 18.5379 37.1366C26.9981 34.7937 33.1343 26.91 33.1343 18.3754V10.2126C33.1343 9.24575 32.3159 8.03715 31.4234 7.66528L21.0669 3.42594C20.0628 3.01688 19.0214 2.81233 17.9615 2.81233Z" fill="#543E7E"/>
  <path d="M17.9619 22.3356C15.1357 22.3356 12.8486 20.0486 12.8486 17.2223C12.8486 14.3961 15.1357 12.109 17.9619 12.109C20.7882 12.109 23.0752 14.3961 23.0752 17.2223C23.0752 20.0486 20.7882 22.3356 17.9619 22.3356ZM17.9619 14.8981C16.679 14.8981 15.6377 15.9393 15.6377 17.2223C15.6377 18.5053 16.679 19.5465 17.9619 19.5465C19.2449 19.5465 20.2862 18.5053 20.2862 17.2223C20.2862 15.9393 19.2449 14.8981 17.9619 14.8981Z" fill="#543E7E"/>
  <path d="M17.9618 27.9138C17.1995 27.9138 16.5673 27.2816 16.5673 26.5193V20.9411C16.5673 20.1788 17.1995 19.5466 17.9618 19.5466C18.7241 19.5466 19.3563 20.1788 19.3563 20.9411V26.5193C19.3563 27.2816 18.7241 27.9138 17.9618 27.9138Z" fill="#543E7E"/>
</svg>