<svg width="40" height="40" viewBox="0 0 40 40" fill="none" xmlns="http://www.w3.org/2000/svg">
  <path d="M25.189 33.8074C24.9844 33.8074 24.7611 33.7516 24.5751 33.6586C23.8867 33.3053 23.6076 32.4685 23.9425 31.7804L27.9239 23.8398C28.1658 23.3749 28.6495 23.0774 29.1704 23.0774C29.6914 23.0774 30.1751 23.3749 30.417 23.8584L34.3984 31.799C34.7519 32.4871 34.4728 33.3239 33.7658 33.6772C33.0775 34.0306 32.2402 33.7516 31.8867 33.045L29.1704 27.5963L26.4541 33.045C26.1937 33.5285 25.6913 33.8074 25.189 33.8074Z" fill="#543E7E"/>
  <path d="M32.4281 32.3944H25.8794C25.1166 32.3944 24.4841 31.7621 24.4841 30.9997C24.4841 30.2373 25.1166 29.605 25.8794 29.605H32.4281C33.1909 29.605 33.8235 30.2373 33.8235 30.9997C33.8235 31.7621 33.2095 32.3944 32.4281 32.3944Z" fill="#543E7E"/>
  <path d="M29.1537 39.9998C23.1815 39.9998 18.3071 35.1462 18.3071 29.1582C18.3071 23.1703 23.1629 18.3167 29.1537 18.3167C35.1258 18.3167 40.0003 23.1703 40.0003 29.1582C40.0003 35.1462 35.1444 39.9998 29.1537 39.9998ZM29.1537 21.1247C24.7071 21.1247 21.0978 24.7323 21.0978 29.1768C21.0978 33.6213 24.7071 37.229 29.1537 37.229C33.5816 37.229 37.2096 33.6213 37.2096 29.1768C37.2096 24.7323 33.6002 21.1247 29.1537 21.1247Z" fill="#543E7E"/>
  <path d="M6.71634 21.3114C4.65121 21.3114 3.01398 20.7347 1.86048 19.6189C0.632564 18.4288 0 16.6249 0 14.3005V7.01081C0 2.49193 2.49305 0 7.01402 0H14.3071C16.6327 0 18.4188 0.613675 19.6281 1.85962C20.8002 3.06837 21.3769 4.81649 21.3211 7.04804V14.3005C21.3769 16.5692 20.8002 18.3546 19.5909 19.5633C18.3816 20.7721 16.5955 21.3298 14.2885 21.2926H7.03262C6.90239 21.3112 6.80937 21.3114 6.71634 21.3114ZM7.01402 2.80805C4.01864 2.80805 2.79072 4.03543 2.79072 7.02942V14.3191C2.79072 15.8626 3.12559 16.9783 3.79537 17.6291C4.44653 18.2614 5.48844 18.5405 6.95822 18.5219H14.2885C15.8513 18.5591 16.9304 18.243 17.5816 17.5921C18.2327 16.9413 18.5304 15.844 18.4932 14.3377V7.01081C18.5304 5.52311 18.2327 4.46307 17.6002 3.8122C16.949 3.14274 15.8327 2.80805 14.2885 2.80805H7.01402Z" fill="#543E7E"/>
  <path d="M14.4177 9.96619H6.86417C6.10138 9.96619 5.46881 9.33392 5.46881 8.57147C5.46881 7.80903 6.10138 7.17676 6.86417 7.17676H14.4177C15.1805 7.17676 15.8131 7.80903 15.8131 8.57147C15.8131 9.33392 15.1991 9.96619 14.4177 9.96619Z" fill="#543E7E"/>
  <path d="M10.6612 9.96704C9.89837 9.96704 9.26581 9.33477 9.26581 8.57232V7.3078C9.26581 6.54536 9.89837 5.91309 10.6612 5.91309C11.424 5.91309 12.0565 6.54536 12.0565 7.3078V8.57232C12.0565 9.33477 11.424 9.96704 10.6612 9.96704Z" fill="#543E7E"/>
  <path d="M6.86417 15.8431C6.10138 15.8431 5.46881 15.2108 5.46881 14.4484C5.46881 13.6859 6.10138 13.0537 6.86417 13.0537C9.22699 13.0537 11.1433 11.0453 11.1433 8.55341C11.1433 7.79096 11.7759 7.15869 12.5387 7.15869C13.3015 7.15869 13.934 7.79096 13.934 8.55341C13.934 12.5702 10.7712 15.8431 6.86417 15.8431Z" fill="#543E7E"/>
  <path d="M14.438 15.844C12.7077 15.844 11.0519 14.97 9.8798 13.4265C9.41468 12.8128 9.54491 11.9387 10.1589 11.4738C10.7728 11.0089 11.6472 11.1391 12.1124 11.7528C12.7449 12.6082 13.5821 13.0731 14.438 13.0731C15.2008 13.0731 15.8333 13.7054 15.8333 14.4679C15.8333 15.2303 15.2008 15.844 14.438 15.844Z" fill="#543E7E"/>
  <path d="M14.4187 40C6.47448 40 0 33.5285 0 25.588C0 24.8255 0.632564 24.1932 1.39536 24.1932C2.15816 24.1932 2.79072 24.8255 2.79072 25.588C2.79072 31.0924 6.62332 35.7043 11.7769 36.913L11.2745 36.0762C10.8838 35.4067 11.0885 34.5513 11.7583 34.1608C12.4094 33.7703 13.2839 33.9748 13.6746 34.6443L15.628 37.8986C15.8885 38.3264 15.8885 38.8656 15.6467 39.2934C15.3862 39.7211 14.9211 40 14.4187 40Z" fill="#543E7E"/>
  <path d="M38.6058 15.8248C37.843 15.8248 37.2104 15.1926 37.2104 14.4301C37.2104 8.92565 33.3778 4.31373 28.2243 3.10498L28.7266 3.94185C29.1173 4.61131 28.9127 5.46677 28.2429 5.85729C27.5917 6.24781 26.7173 6.04325 26.3266 5.37377L24.3731 2.11944C24.1126 1.69172 24.1126 1.15243 24.3545 0.724722C24.5964 0.278413 25.0615 0.0180664 25.5638 0.0180664C33.5081 0.0180664 39.9825 6.48954 39.9825 14.4301C40.0012 15.1926 39.3686 15.8248 38.6058 15.8248Z" fill="#543E7E"/>
</svg>