<svg width="40" height="40" viewBox="0 0 40 40" fill="none" xmlns="http://www.w3.org/2000/svg">
  <path d="M39.1124 17.4806L36.3923 14.3214C35.8722 13.7216 35.4522 12.6018 35.4522 11.802V8.40289C35.4522 6.28343 33.7121 4.54386 31.592 4.54386H28.1918C27.4117 4.54386 26.2717 4.12397 25.6716 3.6041L22.5114 0.884778C21.1313 -0.294926 18.8712 -0.294926 17.4711 0.884778L14.3309 3.62409C13.7308 4.12397 12.5908 4.54386 11.8107 4.54386H8.3505C6.23037 4.54386 4.49027 6.28343 4.49027 8.40289V11.822C4.49027 12.6018 4.07024 13.7216 3.57021 14.3214L0.870052 17.5006C-0.290017 18.8803 -0.290017 21.1197 0.870052 22.4994L3.57021 25.6786C4.07024 26.2784 4.49027 27.3982 4.49027 28.178V31.5971C4.49027 33.7166 6.23037 35.4561 8.3505 35.4561H11.8107C12.5908 35.4561 13.7308 35.876 14.3309 36.3959L17.4911 39.1152C18.8712 40.2949 21.1313 40.2949 22.5314 39.1152L25.6916 36.3959C26.2917 35.876 27.4117 35.4561 28.2118 35.4561H31.612C33.7321 35.4561 35.4722 33.7166 35.4722 31.5971V28.198C35.4722 27.4182 35.8922 26.2784 36.4123 25.6786L39.1324 22.5194C40.2925 21.1397 40.2925 18.8603 39.1124 17.4806ZM28.3118 16.221L18.6512 25.8785C18.3712 26.1585 17.9912 26.3184 17.5911 26.3184C17.1911 26.3184 16.8111 26.1585 16.5311 25.8785L11.6907 21.0398C11.1107 20.4599 11.1107 19.5001 11.6907 18.9203C12.2707 18.3404 13.2308 18.3404 13.8108 18.9203L17.5911 22.6993L26.1917 14.1015C26.7717 13.5216 27.7317 13.5216 28.3118 14.1015C28.8918 14.6813 28.8918 15.6411 28.3118 16.221Z" fill="#543E7E"/>
</svg>