<svg width="40" height="40" viewBox="0 0 40 40" fill="none" xmlns="http://www.w3.org/2000/svg">
  <path d="M8.837 25.3769C8.07421 25.3769 7.44165 24.7444 7.44165 23.9816V16.0002C7.44165 15.2374 8.07421 14.6048 8.837 14.6048C9.59979 14.6048 10.2323 15.2374 10.2323 16.0002V23.9816C10.2323 24.763 9.59979 25.3769 8.837 25.3769Z" fill="#543E7E"/>
  <path d="M14.4187 28.0366C13.6559 28.0366 13.0233 27.4041 13.0233 26.6413V13.3575C13.0233 12.5947 13.6559 11.9622 14.4187 11.9622C15.1815 11.9622 15.814 12.5947 15.814 13.3575V26.6413C15.814 27.4227 15.1815 28.0366 14.4187 28.0366Z" fill="#543E7E"/>
  <path d="M19.9998 30.6978C19.2371 30.6978 18.6045 30.0653 18.6045 29.3025V10.6978C18.6045 9.93502 19.2371 9.30246 19.9998 9.30246C20.7626 9.30246 21.3952 9.93502 21.3952 10.6978V29.3025C21.3952 30.0653 20.7626 30.6978 19.9998 30.6978Z" fill="#543E7E"/>
  <path d="M25.5815 28.0366C24.8187 28.0366 24.1862 27.4041 24.1862 26.6413V13.3575C24.1862 12.5947 24.8187 11.9622 25.5815 11.9622C26.3443 11.9622 26.9769 12.5947 26.9769 13.3575V26.6413C26.9769 27.4227 26.3443 28.0366 25.5815 28.0366Z" fill="#543E7E"/>
  <path d="M31.1626 25.3769C30.3998 25.3769 29.7673 24.7444 29.7673 23.9816V16.0002C29.7673 15.2374 30.3998 14.6048 31.1626 14.6048C31.9254 14.6048 32.558 15.2374 32.558 16.0002V23.9816C32.558 24.763 31.9254 25.3769 31.1626 25.3769Z" fill="#543E7E"/>
  <path d="M20 40C8.96744 40 0 31.0326 0 20C0 8.96744 8.96744 0 20 0C31.0326 0 40 8.96744 40 20C40 31.0326 31.0326 40 20 40ZM20 2.7907C10.5116 2.7907 2.7907 10.5116 2.7907 20C2.7907 29.4884 10.5116 37.2093 20 37.2093C29.4884 37.2093 37.2093 29.4884 37.2093 20C37.2093 10.5116 29.4884 2.7907 20 2.7907Z" fill="#543E7E"/>
</svg>