<svg width="36" height="40" viewBox="0 0 36 40" fill="none" xmlns="http://www.w3.org/2000/svg">
  <path d="M6.07398 33.9412C4.94782 33.9412 3.89551 33.5471 3.13859 32.8155C2.17859 31.8964 1.71705 30.5082 1.88321 29.0075L2.56628 22.9298C2.69551 21.7855 3.37859 20.2661 4.17244 19.4407L19.3294 3.13975C23.114 -0.930833 27.0648 -1.04338 31.0709 2.8021C35.0771 6.64758 35.1878 10.6619 31.4032 14.7325L16.2463 31.0335C15.4709 31.8776 14.0309 32.6654 12.9047 32.8532L6.96013 33.8847C6.64628 33.9035 6.36936 33.9412 6.07398 33.9412ZM25.2555 2.78334C23.834 2.78334 22.5971 3.68375 21.3417 5.03435L6.18474 21.3543C5.81551 21.7482 5.3909 22.6861 5.31705 23.2301L4.63398 29.3077C4.56013 29.9267 4.70782 30.4332 5.04013 30.7521C5.37244 31.071 5.8709 31.1835 6.48013 31.0897L12.4247 30.0582C12.9601 29.9644 13.8463 29.4765 14.2155 29.0826L29.3725 12.7816C31.6617 10.3055 32.4925 8.01695 29.1509 4.82801C27.674 3.38361 26.4001 2.78334 25.2555 2.78334Z" fill="#543E7E"/>
  <path d="M27.8593 17.8647C27.8224 17.8647 27.767 17.8647 27.7301 17.8647C21.9701 17.2832 17.3362 12.8376 16.4501 7.02245C16.3393 6.25335 16.8562 5.54053 17.6131 5.40922C18.3701 5.29667 19.0716 5.82191 19.2008 6.591C19.9024 11.1305 23.5208 14.6196 28.0254 15.0698C28.7824 15.1449 29.3362 15.8389 29.2624 16.6079C29.1701 17.3207 28.5608 17.8647 27.8593 17.8647Z" fill="#543E7E"/>
  <path d="M34.6154 40H1.38462C0.627692 40 0 39.3622 0 38.5931C0 37.824 0.627692 37.1862 1.38462 37.1862H34.6154C35.3723 37.1862 36 37.824 36 38.5931C36 39.3622 35.3723 40 34.6154 40Z" fill="#543E7E"/>
</svg>