<svg viewBox="0 0 36 36" fill="currentColor" xmlns="http://www.w3.org/2000/svg">
  <path
    d="M18-.001c5.862 0 6.557.022 8.872.128 2.14.098 3.303.455 4.077.756 1.025.398 1.756.874 2.525 1.642.768.769 1.244 1.5 1.642 2.525.3.774.658 1.936.756 4.077.094 2.058.122 2.835.127 7.1v3.545c-.005 4.265-.033 5.042-.127 7.1-.098 2.14-.455 3.303-.756 4.077-.398 1.025-.874 1.756-1.642 2.525-.769.768-1.5 1.244-2.525 1.642-.774.3-1.936.658-4.077.756-2.315.106-3.01.128-8.873.128-5.863 0-6.557-.022-8.872-.128-2.14-.098-3.303-.455-4.077-.756-1.025-.398-1.756-.874-2.525-1.642-.768-.769-1.244-1.5-1.642-2.525-.3-.774-.658-1.936-.756-4.077-.106-2.315-.128-3.01-.128-8.873 0-5.862.022-6.557.128-8.872.098-2.14.455-3.303.756-4.077.398-1.025.874-1.756 1.642-2.525.769-.768 1.5-1.244 2.525-1.642.774-.3 1.936-.658 4.077-.756C11.442.02 12.137-.001 18-.001Zm11.72 3.645a2.635 2.635 0 1 0 0 5.27 2.635 2.635 0 0 0 0-5.27ZM18 6.724C11.771 6.724 6.723 11.772 6.723 18s5.048 11.276 11.275 11.276c6.228 0 11.276-5.048 11.276-11.276 0-6.227-5.048-11.275-11.276-11.275Zm0 18.594a7.319 7.319 0 1 1 0-14.638 7.319 7.319 0 0 1 0 14.638Z">
  </path>
</svg>
