<svg width="86" height="58" viewBox="0 0 86 58" fill="none" xmlns="http://www.w3.org/2000/svg">
  <path d="M31.4543 0H3.22087C1.44108 0 0 1.44038 0 3.21932V53.0233C0 55.7717 2.22936 57.9969 4.97604 57.9969L21.1697 32.861L18.6817 28.9985L34.1641 4.96439C35.5435 2.82229 34.0039 0 31.4543 0Z" fill="#C46FAA"/>
  <path d="M25.8317 25.7084L0 10.8059V46.3354L25.8317 31.4329C28.0364 30.1618 28.0364 26.9795 25.8317 25.7084Z" fill="#5E539F"/>
  <path d="M77.883 24.8958L82.8559 44.8181L74.3665 57.9969L64.5838 45.5382L77.883 24.8958Z" fill="#5E539F"/>
  <path d="M48.7073 24.8958L50.641 32.424L34.1671 57.9969L30.7923 52.7063L48.7073 24.8958Z" fill="#5E539F"/>
  <path d="M74.3665 57.9969L82.8559 44.818L85.0914 53.5804C85.6611 55.8179 83.9706 57.9969 81.6581 57.9969H74.3665Z" fill="#8D6FAF"/>
  <path d="M34.1671 57.9969L66.6284 7.60201C68.4913 4.70894 72.91 5.42605 73.7598 8.76232L78.4464 27.1395L58.5669 58H34.1671V57.9969Z" fill="#8D6FAF"/>
  <path d="M4.97601 57.9969L37.4403 7.60201C39.3033 4.70894 43.722 5.42605 44.5718 8.76232L49.2584 27.1395L29.3789 58H4.97601V57.9969Z" fill="#8D6FAF"/>
</svg>