<svg width="44" height="44" viewBox="0 0 44 44" fill="none" xmlns="http://www.w3.org/2000/svg">
  <path fill-rule="evenodd" clip-rule="evenodd" d="M28.7151 5.44251C25.2434 3.89563 21.3647 3.51241 17.6575 4.35001C13.9502 5.18762 10.613 7.20116 8.14364 10.0903C5.67425 12.9795 4.20495 16.5896 3.95487 20.382C3.7048 24.1745 4.68735 27.9462 6.75599 31.1346C8.82462 34.323 11.8685 36.7573 15.4337 38.0745C18.9988 39.3916 22.8943 39.521 26.539 38.4434C30.1837 37.3657 33.3824 35.1388 35.6581 32.0947C37.9338 29.0506 39.1645 25.3524 39.1667 21.5518V19.7512C39.1667 18.6697 40.0434 17.7929 41.125 17.7929C42.2066 17.7929 43.0833 18.6697 43.0833 19.7512V21.5529C43.0807 26.1982 41.5765 30.7193 38.7951 34.4398C36.0137 38.1604 32.1042 40.8822 27.6495 42.1993C23.1948 43.5164 18.4338 43.3583 14.0763 41.7484C9.71891 40.1386 5.99861 37.1633 3.47028 33.2663C0.941944 29.3694 -0.25895 24.7595 0.0466954 20.1243C0.352341 15.4891 2.14815 11.0768 5.16629 7.54561C8.18444 4.01438 12.2632 1.55338 16.7943 0.529645C21.3254 -0.494094 26.066 -0.0257193 30.3091 1.86491C31.2971 2.30511 31.7411 3.46283 31.3009 4.45075C30.8607 5.43868 29.703 5.8827 28.7151 5.44251Z" fill="#543E7E"/>
  <path fill-rule="evenodd" clip-rule="evenodd" d="M42.5091 4.50077C43.2742 5.26516 43.2748 6.50511 42.5105 7.27027L22.9271 26.8732C22.5599 27.2407 22.0617 27.4473 21.5422 27.4475C21.0226 27.4476 20.5243 27.2413 20.1569 26.8739L14.2819 20.9989C13.5172 20.2341 13.5172 18.9942 14.2819 18.2294C15.0467 17.4646 16.2867 17.4646 17.0514 18.2294L21.541 22.7189L39.7396 4.50215C40.504 3.73699 41.7439 3.73637 42.5091 4.50077Z" fill="#543E7E"/>
</svg>