<svg width="40" height="40" viewBox="0 0 40 40" fill="none" xmlns="http://www.w3.org/2000/svg">
  <path d="M29.3023 40H10.6977C2.49302 40 0 37.507 0 29.3023V10.6977C0 2.49302 2.49302 0 10.6977 0H13.4884C16.7442 0 17.7674 1.06047 19.0698 2.7907L21.8605 6.51163C22.4744 7.33023 22.5674 7.44186 23.7209 7.44186H29.3023C37.507 7.44186 40 9.93489 40 18.1395V29.3023C40 37.507 37.507 40 29.3023 40ZM10.6977 2.7907C4.05581 2.7907 2.7907 4.05581 2.7907 10.6977V29.3023C2.7907 35.9442 4.05581 37.2093 10.6977 37.2093H29.3023C35.9442 37.2093 37.2093 35.9442 37.2093 29.3023V18.1395C37.2093 11.4977 35.9442 10.2326 29.3023 10.2326H23.7209C21.3395 10.2326 20.5581 9.41395 19.6279 8.18605L16.8372 4.46512C15.8698 3.1814 15.5907 2.7907 13.4884 2.7907H10.6977Z" fill="#543E7E"/>
</svg>