<svg width="40" height="40" viewBox="0 0 40 40" fill="none" xmlns="http://www.w3.org/2000/svg">
  <circle cx="20" cy="20" r="19.5" stroke="#8D6FAF"/>
  <path d="M15.3403 13.0023C15.3153 11.8657 14.5025 11 13.1827 11C11.8629 11 11 11.8657 11 13.0023C11 14.1153 11.8374 15.0059 13.1326 15.0059H13.1573C14.5025 15.0059 15.3403 14.1153 15.3403 13.0023Z" fill="#543E7E"/>
  <path d="M15.0862 16.5882H11.2281V28.1802H15.0862V16.5882Z" fill="#543E7E"/>
  <path d="M24.5579 16.316C27.0967 16.316 29 17.9731 29 21.5337L28.9999 28.1802H25.1419V21.9785C25.1419 20.4207 24.5836 19.3578 23.187 19.3578C22.1211 19.3578 21.4862 20.0744 21.2074 20.7665C21.1054 21.0145 21.0803 21.3601 21.0803 21.7066V28.1805H17.2218C17.2218 28.1805 17.2726 17.6762 17.2218 16.5885H21.0803V18.2304C21.5924 17.4411 22.5095 16.316 24.5579 16.316Z" fill="#543E7E"/>
</svg>