<svg width="44" height="44" viewBox="0 0 44 44" fill="none" xmlns="http://www.w3.org/2000/svg">
  <path d="M15 35.8983H14C6 35.8983 2 33.9043 2 23.9342V13.9641C2 5.98804 6 2 14 2H30C38 2 42 5.98804 42 13.9641V23.9342C42 31.9103 38 35.8983 30 35.8983H29C28.38 35.8983 27.78 36.1974 27.4 36.6959L24.4 40.6839C23.08 42.4387 20.92 42.4387 19.6 40.6839L16.6 36.6959C16.28 36.2572 15.54 35.8983 15 35.8983Z" stroke="#543E7E" stroke-width="3" stroke-miterlimit="10" stroke-linecap="round" stroke-linejoin="round"/>
  <path d="M12.0002 13.964H32.0002" stroke="#543E7E" stroke-width="3" stroke-linecap="round" stroke-linejoin="round"/>
  <path d="M12.0002 23.9341H24.0002" stroke="#543E7E" stroke-width="3" stroke-linecap="round" stroke-linejoin="round"/>
</svg>