<svg width="44" height="44" viewBox="0 0 44 44" fill="none" xmlns="http://www.w3.org/2000/svg">
  <path d="M16.9998 25.4999C16.9998 27.4399 18.4998 28.9999 20.3398 28.9999H24.0998C25.6998 28.9999 26.9998 27.6399 26.9998 25.9399C26.9998 24.1199 26.1998 23.4599 25.0198 23.0399L18.9998 20.9399C17.8198 20.5199 17.0198 19.8799 17.0198 18.0399C17.0198 16.3599 18.3198 14.9799 19.9198 14.9799H23.6798C25.5198 14.9799 27.0198 16.5399 27.0198 18.4799" stroke="#543E7E" stroke-width="3" stroke-linecap="round" stroke-linejoin="round"/>
  <path d="M21.9999 12.9999V30.9999" stroke="#543E7E" stroke-width="3" stroke-linecap="round" stroke-linejoin="round"/>
  <path d="M42 22C42 33.04 33.04 42 22 42C10.96 42 2 33.04 2 22C2 10.96 10.96 2 22 2" stroke="#543E7E" stroke-width="3" stroke-linecap="round" stroke-linejoin="round"/>
  <path d="M42.0001 10V2H34.0001" stroke="#543E7E" stroke-width="3" stroke-linecap="round" stroke-linejoin="round"/>
  <path d="M32.0001 12L42.0001 2" stroke="#543E7E" stroke-width="3" stroke-linecap="round" stroke-linejoin="round"/>
</svg>