<svg width="40" height="39" viewBox="0 0 40 39" fill="none" xmlns="http://www.w3.org/2000/svg">
  <path d="M12.5581 38.3813C12.0372 38.3813 11.4976 38.2511 11.0139 37.9906C9.95345 37.4325 9.30233 36.3162 9.30233 35.1255V32.4838C3.68372 31.9071 0 27.7767 0 21.8604V10.6977C0 4.29767 4.29767 0 10.6977 0H29.3023C35.7023 0 40 4.29767 40 10.6977V21.8604C40 28.2604 35.7023 32.5581 29.3023 32.5581H22.2884L14.3627 37.842C13.8232 38.1955 13.1907 38.3813 12.5581 38.3813ZM10.6977 2.77207C5.89767 2.77207 2.7907 5.87905 2.7907 10.6791V21.842C2.7907 26.642 5.89767 29.749 10.6977 29.749C11.4605 29.749 12.093 30.3815 12.093 31.1443V35.1071C12.093 35.3489 12.2419 35.4606 12.3349 35.5164C12.4279 35.5722 12.614 35.628 12.8186 35.4978L21.0977 29.9908C21.3209 29.842 21.6 29.749 21.8791 29.749H29.3209C34.1209 29.749 37.2279 26.642 37.2279 21.842V10.6791C37.2279 5.87905 34.1209 2.77207 29.3209 2.77207H10.6977Z" fill="#543E7E"/>
  <path d="M19.9995 19.3859C19.2367 19.3859 18.6042 18.7533 18.6042 17.9905V17.5998C18.6042 15.4417 20.1856 14.3812 20.7809 13.9719C21.4693 13.5068 21.6925 13.1905 21.6925 12.7068C21.6925 11.7766 20.9297 11.0137 19.9995 11.0137C19.0693 11.0137 18.3065 11.7766 18.3065 12.7068C18.3065 13.4696 17.6739 14.1022 16.9111 14.1022C16.1484 14.1022 15.5159 13.4696 15.5159 12.7068C15.5159 10.2324 17.5251 8.22301 19.9995 8.22301C22.4739 8.22301 24.4832 10.2324 24.4832 12.7068C24.4832 14.8277 22.9204 15.8882 22.3437 16.2789C21.6181 16.7626 21.3949 17.0789 21.3949 17.5998V17.9905C21.3949 18.7719 20.7623 19.3859 19.9995 19.3859Z" fill="#543E7E"/>
  <path d="M20.0002 24.0187C19.2188 24.0187 18.6049 23.3862 18.6049 22.6234C18.6049 21.8606 19.2374 21.228 20.0002 21.228C20.763 21.228 21.3956 21.8606 21.3956 22.6234C21.3956 23.3862 20.7816 24.0187 20.0002 24.0187Z" fill="#543E7E"/>
</svg>