<svg width="40" height="40" viewBox="0 0 40 40" fill="none" xmlns="http://www.w3.org/2000/svg">
  <path d="M22.4719 0C16.4295 0 11.1361 4.3 9.98752 10C4.49438 10 0 14.5 0 20C0 22.65 0.998751 24.95 2.64669 26.7C3.94507 25.6 5.64295 25 7.49064 25C8.48939 25 9.4382 25.25 10.2871 25.65C11.1361 22.45 13.9825 20 17.4782 20C20.9238 20 23.8202 22.45 24.6692 25.65C25.5181 25.3 26.4669 25 27.4657 25C30.6117 25 33.2085 26.95 34.3571 29.7C37.5531 28.85 40 25.95 40 22.5C40 19.25 37.9026 16.05 35.0062 15V12.5C35.0062 5.6 29.4132 0 22.5218 0H22.4719ZM16.6791 25C16.1623 25.1739 15.7166 25.5125 15.41 25.9639C15.1034 26.4153 14.9529 26.9548 14.9813 27.5V37.5C14.9813 38.163 15.2443 38.7989 15.7126 39.2678C16.1808 39.7366 16.8159 40 17.4782 40C18.1404 40 18.7755 39.7366 19.2437 39.2678C19.712 38.7989 19.975 38.163 19.975 37.5V27.5C19.9811 27.1302 19.9051 26.7636 19.7525 26.4267C19.5999 26.0898 19.3746 25.791 19.0928 25.5519C18.8109 25.3127 18.4796 25.1392 18.1227 25.0437C17.7657 24.9483 17.3921 24.9334 17.0287 25C16.9289 24.994 16.8289 24.994 16.7291 25H16.6791ZM6.69164 30C6.17483 30.1739 5.72909 30.5125 5.42251 30.9639C5.11592 31.4153 4.96534 31.9548 4.99376 32.5V37.5C4.99376 38.163 5.25682 38.7989 5.72508 39.2678C6.19333 39.7366 6.82842 40 7.49064 40C8.15285 40 8.78794 39.7366 9.2562 39.2678C9.72445 38.7989 9.98752 38.163 9.98752 37.5V32.5C9.99356 32.1301 9.91756 31.7636 9.76499 31.4267C9.61243 31.0898 9.3871 30.791 9.10526 30.5519C8.82342 30.3127 8.49208 30.1392 8.13515 30.0437C7.77822 29.9483 7.40459 29.9334 7.0412 30C6.94141 29.994 6.84136 29.994 6.74157 30H6.69164ZM26.6667 30C26.1499 30.1739 25.7041 30.5125 25.3975 30.9639C25.091 31.4153 24.9404 31.9548 24.9688 32.5V37.5C24.9688 38.163 25.2319 38.7989 25.7001 39.2678C26.1684 39.7366 26.8035 40 27.4657 40C28.1279 40 28.763 39.7366 29.2312 39.2678C29.6995 38.7989 29.9625 38.163 29.9625 37.5V32.5C29.9686 32.1301 29.8926 31.7636 29.74 31.4267C29.5875 31.0898 29.3621 30.791 29.0803 30.5519C28.7984 30.3127 28.4671 30.1392 28.1102 30.0437C27.7533 29.9483 27.3796 29.9334 27.0162 30C26.9164 29.994 26.8164 29.994 26.7166 30H26.6667Z" fill="#543E7E"/>
</svg>